<svg width="34" height="16" viewBox="0 0 34 16" fill="none" xmlns="http://www.w3.org/2000/svg">
<rect width="34" height="16" rx="8" fill="#AEFFC0"/>
<path d="M3.64 6.504V5.8L5.56 5.32V11H4.88V6.136L3.64 6.504ZM10.2256 8.24V7.8C10.4069 7.8 10.5669 7.776 10.7056 7.728C10.8442 7.67467 10.9616 7.60533 11.0576 7.52C11.1536 7.42933 11.2256 7.32533 11.2736 7.208C11.3269 7.09067 11.3536 6.96533 11.3536 6.832C11.3536 6.656 11.3216 6.50133 11.2576 6.368C11.1936 6.22933 11.0976 6.12267 10.9696 6.048C10.8469 5.97333 10.6922 5.936 10.5056 5.936C10.2442 5.936 10.0229 6.01867 9.84156 6.184C9.66023 6.344 9.56956 6.54667 9.56956 6.792H8.92156C8.92156 6.49867 8.98823 6.24267 9.12156 6.024C9.26023 5.80533 9.4469 5.63467 9.68156 5.512C9.92156 5.384 10.1936 5.32 10.4976 5.32C10.8176 5.32 11.0922 5.38933 11.3216 5.528C11.5562 5.66667 11.7349 5.848 11.8576 6.072C11.9856 6.296 12.0496 6.54133 12.0496 6.808C12.0496 7.06933 11.9722 7.30933 11.8176 7.528C11.6629 7.74667 11.4496 7.92 11.1776 8.048C10.9056 8.176 10.5882 8.24 10.2256 8.24ZM10.4656 11.08C10.1936 11.08 9.94823 11.04 9.72956 10.96C9.5109 10.88 9.32423 10.7707 9.16956 10.632C9.0149 10.488 8.8949 10.3227 8.80956 10.136C8.72423 9.944 8.68156 9.73867 8.68156 9.52H9.36956C9.36956 9.696 9.4149 9.85333 9.50556 9.992C9.60156 10.1307 9.73223 10.24 9.89756 10.32C10.0629 10.4 10.2522 10.44 10.4656 10.44C10.6789 10.44 10.8629 10.4 11.0176 10.32C11.1776 10.2347 11.3002 10.1173 11.3856 9.968C11.4709 9.81867 11.5136 9.64267 11.5136 9.44C11.5136 9.26933 11.4789 9.12 11.4096 8.992C11.3456 8.85867 11.2549 8.74933 11.1376 8.664C11.0202 8.57333 10.8842 8.50667 10.7296 8.464C10.5749 8.42133 10.4069 8.4 10.2256 8.4V7.96C10.4976 7.96 10.7509 7.98933 10.9856 8.048C11.2256 8.10667 11.4362 8.2 11.6176 8.328C11.8042 8.45067 11.9482 8.61067 12.0496 8.808C12.1562 9.00533 12.2096 9.24267 12.2096 9.52C12.2096 9.83467 12.1322 10.1093 11.9776 10.344C11.8282 10.5787 11.6229 10.76 11.3616 10.888C11.1002 11.016 10.8016 11.08 10.4656 11.08ZM14.4487 6.6C14.4487 6.36 14.4994 6.144 14.6007 5.952C14.7074 5.76 14.8567 5.608 15.0487 5.496C15.2407 5.37867 15.4621 5.32 15.7127 5.32C15.9687 5.32 16.1901 5.37867 16.3767 5.496C16.5687 5.608 16.7154 5.76 16.8168 5.952C16.9234 6.144 16.9767 6.36 16.9767 6.6C16.9767 6.83467 16.9234 7.05067 16.8168 7.248C16.7154 7.44 16.5687 7.59467 16.3767 7.712C16.1901 7.824 15.9687 7.88 15.7127 7.88C15.4621 7.88 15.2407 7.824 15.0487 7.712C14.8567 7.59467 14.7074 7.44 14.6007 7.248C14.4994 7.05067 14.4487 6.83467 14.4487 6.6ZM15.0167 6.6C15.0167 6.73333 15.0434 6.85867 15.0967 6.976C15.1554 7.09333 15.2354 7.18667 15.3367 7.256C15.4434 7.32533 15.5687 7.36 15.7127 7.36C15.8621 7.36 15.9874 7.32533 16.0887 7.256C16.1901 7.18667 16.2674 7.09333 16.3207 6.976C16.3794 6.85867 16.4087 6.73333 16.4087 6.6C16.4087 6.46133 16.3794 6.336 16.3207 6.224C16.2674 6.10667 16.1901 6.01333 16.0887 5.944C15.9874 5.87467 15.8621 5.84 15.7127 5.84C15.5687 5.84 15.4434 5.87467 15.3367 5.944C15.2354 6.01333 15.1554 6.10667 15.0967 6.224C15.0434 6.336 15.0167 6.46133 15.0167 6.6ZM17.3687 9.8C17.3687 9.56 17.4194 9.344 17.5208 9.152C17.6274 8.96 17.7767 8.808 17.9688 8.696C18.1608 8.57867 18.3821 8.52 18.6328 8.52C18.8887 8.52 19.1101 8.57867 19.2968 8.696C19.4888 8.808 19.6354 8.96 19.7368 9.152C19.8434 9.344 19.8967 9.56 19.8967 9.8C19.8967 10.0347 19.8434 10.2507 19.7368 10.448C19.6354 10.64 19.4888 10.7947 19.2968 10.912C19.1101 11.024 18.8887 11.08 18.6328 11.08C18.3821 11.08 18.1608 11.024 17.9688 10.912C17.7767 10.7947 17.6274 10.64 17.5208 10.448C17.4194 10.2507 17.3687 10.0347 17.3687 9.8ZM17.9367 9.8C17.9367 9.93333 17.9634 10.0587 18.0168 10.176C18.0754 10.2933 18.1554 10.3867 18.2568 10.456C18.3634 10.5253 18.4887 10.56 18.6328 10.56C18.7821 10.56 18.9074 10.5253 19.0087 10.456C19.1101 10.3867 19.1874 10.2933 19.2407 10.176C19.2994 10.0587 19.3288 9.93333 19.3288 9.8C19.3288 9.66133 19.2994 9.536 19.2407 9.424C19.1874 9.30667 19.1101 9.21333 19.0087 9.144C18.9074 9.07467 18.7821 9.04 18.6328 9.04C18.4887 9.04 18.3634 9.07467 18.2568 9.144C18.1554 9.21333 18.0754 9.30667 18.0168 9.424C17.9634 9.536 17.9367 9.66133 17.9367 9.8ZM18.6727 5.4H19.2727L15.6727 11H15.0727L18.6727 5.4Z" fill="#00A023"/>
<mask id="mask0_29_288" style="mask-type:alpha" maskUnits="userSpaceOnUse" x="21" y="4" width="10" height="10">
<rect x="21" y="4" width="10" height="10" fill="#D9D9D9"/>
</mask>
<g mask="url(#mask0_29_288)">
<path d="M26 11.2604L22.25 7.51044L22.8333 6.91669L26 10.0834L28.3333 7.75002H26.4167V6.91669H29.75V10.25H28.9167V8.34377L26 11.2604Z" fill="#00A023"/>
</g>
</svg>
