<svg width="774" height="288" viewBox="0 0 774 288" fill="none" xmlns="http://www.w3.org/2000/svg">
<path d="M133.928 282.664C134.045 282.845 134.216 282.984 134.44 283.08C134.653 283.187 134.904 283.24 135.192 283.24C135.437 283.24 135.677 283.128 135.912 282.904C136.157 282.691 136.28 282.323 136.28 281.8V269.8H137.56V281.96C137.56 282.397 137.501 282.776 137.384 283.096C137.277 283.416 137.117 283.683 136.904 283.896C136.691 284.109 136.429 284.264 136.12 284.36C135.821 284.467 135.485 284.52 135.112 284.52C134.835 284.52 134.568 284.472 134.312 284.376C134.045 284.291 133.821 284.184 133.64 284.056C133.448 283.939 133.309 283.827 133.224 283.72L133.928 282.664ZM143.82 278.728C143.82 279.005 143.884 279.245 144.012 279.448C144.15 279.651 144.337 279.805 144.572 279.912C144.817 280.008 145.094 280.056 145.404 280.056C145.798 280.056 146.15 279.976 146.46 279.816C146.78 279.656 147.03 279.432 147.212 279.144C147.404 278.845 147.5 278.504 147.5 278.12L147.756 279.08C147.756 279.549 147.612 279.939 147.324 280.248C147.046 280.557 146.7 280.787 146.284 280.936C145.878 281.085 145.473 281.16 145.068 281.16C144.62 281.16 144.198 281.069 143.804 280.888C143.42 280.696 143.11 280.424 142.876 280.072C142.641 279.72 142.524 279.293 142.524 278.792C142.524 278.077 142.774 277.507 143.276 277.08C143.788 276.643 144.497 276.424 145.404 276.424C145.937 276.424 146.38 276.488 146.732 276.616C147.094 276.733 147.382 276.872 147.596 277.032C147.809 277.181 147.953 277.304 148.028 277.4V278.152C147.654 277.896 147.27 277.715 146.876 277.608C146.481 277.491 146.06 277.432 145.612 277.432C145.196 277.432 144.854 277.485 144.588 277.592C144.332 277.699 144.14 277.848 144.012 278.04C143.884 278.232 143.82 278.461 143.82 278.728ZM143.628 275.336L143.004 274.392C143.281 274.189 143.66 273.987 144.14 273.784C144.63 273.581 145.217 273.48 145.9 273.48C146.476 273.48 146.977 273.571 147.404 273.752C147.841 273.923 148.177 274.173 148.412 274.504C148.657 274.835 148.78 275.24 148.78 275.72V281H147.5V275.896C147.5 275.64 147.457 275.432 147.372 275.272C147.286 275.101 147.164 274.968 147.004 274.872C146.854 274.776 146.678 274.707 146.476 274.664C146.273 274.621 146.06 274.6 145.836 274.6C145.473 274.6 145.142 274.643 144.844 274.728C144.556 274.813 144.31 274.915 144.108 275.032C143.905 275.149 143.745 275.251 143.628 275.336ZM158.867 276.52C158.867 275.912 158.734 275.453 158.467 275.144C158.2 274.835 157.811 274.68 157.299 274.68C156.926 274.68 156.595 274.76 156.307 274.92C156.03 275.069 155.811 275.283 155.651 275.56C155.502 275.837 155.427 276.157 155.427 276.52V281H154.147V273.64H155.427V274.792C155.672 274.344 155.976 274.013 156.339 273.8C156.712 273.587 157.139 273.48 157.619 273.48C158.398 273.48 159.011 273.741 159.459 274.264C159.918 274.776 160.147 275.475 160.147 276.36V281H158.867V276.52ZM164.633 277.8V276.6H167.833V277.8H164.633ZM173.144 271.08V269.8H178.152V271.08H173.144ZM173.144 275.56V274.28H177.992V275.56H173.144ZM172.392 269.8H173.752V281H172.392V269.8ZM185.876 281.16C185.193 281.16 184.585 281 184.052 280.68C183.529 280.349 183.119 279.896 182.82 279.32C182.532 278.744 182.388 278.077 182.388 277.32C182.388 276.552 182.537 275.88 182.836 275.304C183.145 274.728 183.572 274.28 184.116 273.96C184.671 273.64 185.311 273.48 186.036 273.48C186.761 273.48 187.38 273.635 187.892 273.944C188.415 274.243 188.815 274.675 189.092 275.24C189.369 275.805 189.508 276.477 189.508 277.256C189.508 277.331 189.503 277.411 189.492 277.496C189.492 277.571 189.492 277.619 189.492 277.64H183.204V276.552H188.484L187.972 277.288C188.004 277.235 188.036 277.155 188.068 277.048C188.1 276.931 188.116 276.835 188.116 276.76C188.116 276.323 188.025 275.944 187.844 275.624C187.673 275.304 187.433 275.053 187.124 274.872C186.815 274.691 186.452 274.6 186.036 274.6C185.545 274.6 185.124 274.707 184.772 274.92C184.431 275.123 184.164 275.421 183.972 275.816C183.791 276.2 183.695 276.675 183.684 277.24C183.684 277.816 183.775 278.307 183.956 278.712C184.137 279.117 184.404 279.427 184.756 279.64C185.108 279.853 185.535 279.96 186.036 279.96C186.537 279.96 186.98 279.853 187.364 279.64C187.748 279.416 188.073 279.08 188.34 278.632L189.38 279.288C188.996 279.907 188.511 280.376 187.924 280.696C187.348 281.005 186.665 281.16 185.876 281.16ZM193.028 273.64H194.468L196.548 278.84L198.628 273.64H200.068L196.548 281.56L193.028 273.64Z" fill="#1C3144"/>
<path d="M321.832 274.432L321 282H319.64L321 270.24L325.48 278.352L329.96 270.24L331.32 282H329.96L329.128 274.432L325.48 280.96L321.832 274.432ZM336.929 279.728C336.929 280.005 336.993 280.245 337.121 280.448C337.26 280.651 337.446 280.805 337.681 280.912C337.926 281.008 338.204 281.056 338.513 281.056C338.908 281.056 339.26 280.976 339.569 280.816C339.889 280.656 340.14 280.432 340.321 280.144C340.513 279.845 340.609 279.504 340.609 279.12L340.865 280.08C340.865 280.549 340.721 280.939 340.433 281.248C340.156 281.557 339.809 281.787 339.393 281.936C338.988 282.085 338.582 282.16 338.177 282.16C337.729 282.16 337.308 282.069 336.913 281.888C336.529 281.696 336.22 281.424 335.985 281.072C335.75 280.72 335.633 280.293 335.633 279.792C335.633 279.077 335.884 278.507 336.385 278.08C336.897 277.643 337.606 277.424 338.513 277.424C339.046 277.424 339.489 277.488 339.841 277.616C340.204 277.733 340.492 277.872 340.705 278.032C340.918 278.181 341.062 278.304 341.137 278.4V279.152C340.764 278.896 340.38 278.715 339.985 278.608C339.59 278.491 339.169 278.432 338.721 278.432C338.305 278.432 337.964 278.485 337.697 278.592C337.441 278.699 337.249 278.848 337.121 279.04C336.993 279.232 336.929 279.461 336.929 279.728ZM336.737 276.336L336.113 275.392C336.39 275.189 336.769 274.987 337.249 274.784C337.74 274.581 338.326 274.48 339.009 274.48C339.585 274.48 340.086 274.571 340.513 274.752C340.95 274.923 341.286 275.173 341.521 275.504C341.766 275.835 341.889 276.24 341.889 276.72V282H340.609V276.896C340.609 276.64 340.566 276.432 340.481 276.272C340.396 276.101 340.273 275.968 340.113 275.872C339.964 275.776 339.788 275.707 339.585 275.664C339.382 275.621 339.169 275.6 338.945 275.6C338.582 275.6 338.252 275.643 337.953 275.728C337.665 275.813 337.42 275.915 337.217 276.032C337.014 276.149 336.854 276.251 336.737 276.336ZM347.256 271.6C347.256 271.355 347.342 271.147 347.512 270.976C347.694 270.805 347.902 270.72 348.136 270.72C348.382 270.72 348.59 270.805 348.76 270.976C348.931 271.147 349.016 271.355 349.016 271.6C349.016 271.835 348.931 272.043 348.76 272.224C348.59 272.395 348.382 272.48 348.136 272.48C347.902 272.48 347.694 272.395 347.512 272.224C347.342 272.043 347.256 271.835 347.256 271.6ZM347.496 274.64H348.776V282H347.496V274.64ZM353.492 278.8V277.6H356.692V278.8H353.492ZM358.9 283.664C359.017 283.845 359.188 283.984 359.412 284.08C359.625 284.187 359.876 284.24 360.164 284.24C360.409 284.24 360.649 284.128 360.884 283.904C361.129 283.691 361.252 283.323 361.252 282.8V270.8H362.532V282.96C362.532 283.397 362.473 283.776 362.356 284.096C362.249 284.416 362.089 284.683 361.876 284.896C361.663 285.109 361.401 285.264 361.092 285.36C360.793 285.467 360.457 285.52 360.084 285.52C359.807 285.52 359.54 285.472 359.284 285.376C359.017 285.291 358.793 285.184 358.612 285.056C358.42 284.939 358.281 284.827 358.196 284.72L358.9 283.664ZM369.496 279.12C369.496 279.707 369.629 280.16 369.896 280.48C370.162 280.8 370.552 280.96 371.064 280.96C371.437 280.96 371.762 280.885 372.04 280.736C372.328 280.576 372.546 280.357 372.696 280.08C372.856 279.803 372.936 279.483 372.936 279.12V274.64H374.216V282H372.936V280.848C372.69 281.285 372.386 281.616 372.024 281.84C371.661 282.053 371.234 282.16 370.744 282.16C369.976 282.16 369.362 281.899 368.904 281.376C368.445 280.853 368.216 280.155 368.216 279.28V274.64H369.496V279.12ZM384.542 277.52C384.542 276.912 384.409 276.453 384.142 276.144C383.875 275.835 383.486 275.68 382.974 275.68C382.601 275.68 382.27 275.76 381.982 275.92C381.705 276.069 381.486 276.283 381.326 276.56C381.177 276.837 381.102 277.157 381.102 277.52V282H379.822V274.64H381.102V275.792C381.347 275.344 381.651 275.013 382.014 274.8C382.387 274.587 382.814 274.48 383.294 274.48C384.073 274.48 384.686 274.741 385.134 275.264C385.593 275.776 385.822 276.475 385.822 277.36V282H384.542V277.52Z" fill="#1C3144"/>
<path d="M507.696 278.608C507.952 279.056 508.219 279.451 508.496 279.792C508.784 280.133 509.104 280.4 509.456 280.592C509.808 280.784 510.208 280.88 510.656 280.88C511.253 280.88 511.733 280.715 512.096 280.384C512.459 280.053 512.64 279.632 512.64 279.12C512.64 278.619 512.523 278.219 512.288 277.92C512.053 277.621 511.744 277.381 511.36 277.2C510.987 277.008 510.587 276.837 510.16 276.688C509.883 276.592 509.573 276.469 509.232 276.32C508.891 276.16 508.565 275.963 508.256 275.728C507.947 275.483 507.691 275.184 507.488 274.832C507.296 274.48 507.2 274.048 507.2 273.536C507.2 272.981 507.339 272.485 507.616 272.048C507.893 271.611 508.277 271.269 508.768 271.024C509.259 270.768 509.819 270.64 510.448 270.64C511.056 270.64 511.584 270.757 512.032 270.992C512.491 271.216 512.88 271.509 513.2 271.872C513.52 272.224 513.771 272.597 513.952 272.992L512.784 273.664C512.645 273.387 512.469 273.115 512.256 272.848C512.043 272.581 511.781 272.363 511.472 272.192C511.173 272.021 510.805 271.936 510.368 271.936C509.76 271.936 509.317 272.085 509.04 272.384C508.763 272.672 508.624 272.997 508.624 273.36C508.624 273.669 508.704 273.957 508.864 274.224C509.024 274.48 509.291 274.725 509.664 274.96C510.048 275.184 510.565 275.408 511.216 275.632C511.515 275.739 511.829 275.877 512.16 276.048C512.491 276.219 512.795 276.437 513.072 276.704C513.36 276.96 513.595 277.275 513.776 277.648C513.957 278.011 514.048 278.448 514.048 278.96C514.048 279.451 513.952 279.893 513.76 280.288C513.579 280.683 513.323 281.019 512.992 281.296C512.672 281.573 512.304 281.787 511.888 281.936C511.483 282.085 511.056 282.16 510.608 282.16C510 282.16 509.435 282.032 508.912 281.776C508.4 281.509 507.947 281.163 507.552 280.736C507.168 280.299 506.853 279.835 506.608 279.344L507.696 278.608ZM522.014 282.16C521.331 282.16 520.723 282 520.19 281.68C519.667 281.349 519.256 280.896 518.958 280.32C518.67 279.744 518.526 279.077 518.526 278.32C518.526 277.552 518.675 276.88 518.974 276.304C519.283 275.728 519.71 275.28 520.254 274.96C520.808 274.64 521.448 274.48 522.174 274.48C522.899 274.48 523.518 274.635 524.03 274.944C524.552 275.243 524.952 275.675 525.23 276.24C525.507 276.805 525.646 277.477 525.646 278.256C525.646 278.331 525.64 278.411 525.63 278.496C525.63 278.571 525.63 278.619 525.63 278.64H519.342V277.552H524.622L524.11 278.288C524.142 278.235 524.174 278.155 524.206 278.048C524.238 277.931 524.254 277.835 524.254 277.76C524.254 277.323 524.163 276.944 523.982 276.624C523.811 276.304 523.571 276.053 523.262 275.872C522.952 275.691 522.59 275.6 522.174 275.6C521.683 275.6 521.262 275.707 520.91 275.92C520.568 276.123 520.302 276.421 520.11 276.816C519.928 277.2 519.832 277.675 519.822 278.24C519.822 278.816 519.912 279.307 520.094 279.712C520.275 280.117 520.542 280.427 520.894 280.64C521.246 280.853 521.672 280.96 522.174 280.96C522.675 280.96 523.118 280.853 523.502 280.64C523.886 280.416 524.211 280.08 524.478 279.632L525.518 280.288C525.134 280.907 524.648 281.376 524.062 281.696C523.486 282.005 522.803 282.16 522.014 282.16ZM529.48 274.64H533.16V275.84H529.48V274.64ZM530.68 272.08H531.96V282H530.68V272.08ZM536.524 278.8V277.6H539.724V278.8H536.524ZM545.083 276.4C545.083 277.243 545.264 277.995 545.627 278.656C546 279.317 546.507 279.84 547.147 280.224C547.787 280.608 548.512 280.8 549.323 280.8C550.144 280.8 550.87 280.608 551.499 280.224C552.139 279.84 552.64 279.317 553.003 278.656C553.376 277.995 553.563 277.243 553.563 276.4C553.563 275.557 553.376 274.805 553.003 274.144C552.64 273.483 552.139 272.96 551.499 272.576C550.87 272.192 550.144 272 549.323 272C548.512 272 547.787 272.192 547.147 272.576C546.507 272.96 546 273.483 545.627 274.144C545.264 274.805 545.083 275.557 545.083 276.4ZM543.643 276.4C543.643 275.579 543.782 274.821 544.059 274.128C544.347 273.424 544.747 272.816 545.259 272.304C545.771 271.781 546.374 271.376 547.067 271.088C547.76 270.789 548.512 270.64 549.323 270.64C550.144 270.64 550.896 270.789 551.579 271.088C552.272 271.376 552.875 271.781 553.387 272.304C553.899 272.816 554.294 273.424 554.571 274.128C554.859 274.821 555.003 275.579 555.003 276.4C555.003 277.211 554.859 277.968 554.571 278.672C554.294 279.376 553.899 279.989 553.387 280.512C552.875 281.024 552.272 281.429 551.579 281.728C550.896 282.016 550.144 282.16 549.323 282.16C548.512 282.16 547.76 282.016 547.067 281.728C546.374 281.429 545.771 281.024 545.259 280.512C544.747 279.989 544.347 279.376 544.059 278.672C543.782 277.968 543.643 277.211 543.643 276.4ZM561.324 279.12C561.324 279.707 561.457 280.16 561.724 280.48C561.99 280.8 562.38 280.96 562.892 280.96C563.265 280.96 563.59 280.885 563.868 280.736C564.156 280.576 564.374 280.357 564.524 280.08C564.684 279.803 564.764 279.483 564.764 279.12V274.64H566.044V282H564.764V280.848C564.518 281.285 564.214 281.616 563.852 281.84C563.489 282.053 563.062 282.16 562.572 282.16C561.804 282.16 561.19 281.899 560.732 281.376C560.273 280.853 560.044 280.155 560.044 279.28V274.64H561.324V279.12ZM570.53 274.64H574.21V275.84H570.53V274.64ZM571.73 272.08H573.01V282H571.73V272.08Z" fill="#1C3144"/>
<path d="M406.928 283.664C407.045 283.845 407.216 283.984 407.44 284.08C407.653 284.187 407.904 284.24 408.192 284.24C408.437 284.24 408.677 284.128 408.912 283.904C409.157 283.691 409.28 283.323 409.28 282.8V270.8H410.56V282.96C410.56 283.397 410.501 283.776 410.384 284.096C410.277 284.416 410.117 284.683 409.904 284.896C409.691 285.109 409.429 285.264 409.12 285.36C408.821 285.467 408.485 285.52 408.112 285.52C407.835 285.52 407.568 285.472 407.312 285.376C407.045 285.291 406.821 285.184 406.64 285.056C406.448 284.939 406.309 284.827 406.224 284.72L406.928 283.664ZM417.524 279.12C417.524 279.707 417.657 280.16 417.924 280.48C418.19 280.8 418.58 280.96 419.092 280.96C419.465 280.96 419.79 280.885 420.068 280.736C420.356 280.576 420.574 280.357 420.724 280.08C420.884 279.803 420.964 279.483 420.964 279.12V274.64H422.244V282H420.964V280.848C420.718 281.285 420.414 281.616 420.052 281.84C419.689 282.053 419.262 282.16 418.772 282.16C418.004 282.16 417.39 281.899 416.932 281.376C416.473 280.853 416.244 280.155 416.244 279.28V274.64H417.524V279.12ZM427.85 269.52H429.13V282H427.85V269.52ZM433.618 278.8V277.6H436.818V278.8H433.618ZM442.449 278.64L442.929 277.36H447.889L448.369 278.64H442.449ZM445.377 273.328L443.489 277.776L443.361 278.064L441.697 282H440.177L445.377 270.24L450.577 282H449.057L447.425 278.16L447.297 277.84L445.377 273.328ZM454.563 282.48H455.859C455.859 282.832 455.955 283.157 456.147 283.456C456.339 283.765 456.611 284.011 456.963 284.192C457.315 284.384 457.731 284.48 458.211 284.48C458.585 284.48 458.953 284.389 459.315 284.208C459.678 284.027 459.977 283.739 460.211 283.344C460.457 282.96 460.579 282.459 460.579 281.84V274.64H461.859V281.84C461.859 282.683 461.683 283.387 461.331 283.952C460.979 284.528 460.526 284.96 459.971 285.248C459.417 285.536 458.83 285.68 458.211 285.68C457.497 285.68 456.862 285.547 456.307 285.28C455.763 285.013 455.337 284.635 455.027 284.144C454.718 283.664 454.563 283.109 454.563 282.48ZM454.419 278.32C454.419 277.52 454.585 276.837 454.915 276.272C455.246 275.696 455.689 275.253 456.243 274.944C456.798 274.635 457.406 274.48 458.067 274.48C458.686 274.48 459.225 274.635 459.683 274.944C460.142 275.253 460.499 275.696 460.755 276.272C461.022 276.837 461.155 277.52 461.155 278.32C461.155 279.109 461.022 279.792 460.755 280.368C460.499 280.944 460.142 281.387 459.683 281.696C459.225 282.005 458.686 282.16 458.067 282.16C457.406 282.16 456.798 282.005 456.243 281.696C455.689 281.387 455.246 280.944 454.915 280.368C454.585 279.792 454.419 279.109 454.419 278.32ZM455.715 278.32C455.715 278.885 455.827 279.365 456.051 279.76C456.286 280.155 456.595 280.453 456.979 280.656C457.363 280.859 457.779 280.96 458.227 280.96C458.601 280.96 458.969 280.859 459.331 280.656C459.694 280.453 459.993 280.155 460.227 279.76C460.462 279.365 460.579 278.885 460.579 278.32C460.579 277.893 460.51 277.52 460.371 277.2C460.233 276.869 460.046 276.592 459.811 276.368C459.587 276.144 459.337 275.973 459.059 275.856C458.782 275.739 458.505 275.68 458.227 275.68C457.779 275.68 457.363 275.781 456.979 275.984C456.595 276.187 456.286 276.485 456.051 276.88C455.827 277.275 455.715 277.755 455.715 278.32ZM466.744 278.32C466.744 277.573 466.91 276.912 467.24 276.336C467.582 275.76 468.04 275.307 468.616 274.976C469.192 274.645 469.838 274.48 470.552 274.48C471.278 274.48 471.923 274.645 472.488 274.976C473.064 275.307 473.518 275.76 473.848 276.336C474.19 276.912 474.36 277.573 474.36 278.32C474.36 279.056 474.19 279.717 473.848 280.304C473.518 280.88 473.064 281.333 472.488 281.664C471.923 281.995 471.278 282.16 470.552 282.16C469.838 282.16 469.192 281.995 468.616 281.664C468.04 281.333 467.582 280.88 467.24 280.304C466.91 279.717 466.744 279.056 466.744 278.32ZM468.04 278.32C468.04 278.832 468.147 279.285 468.36 279.68C468.584 280.075 468.883 280.389 469.256 280.624C469.64 280.848 470.072 280.96 470.552 280.96C471.032 280.96 471.459 280.848 471.832 280.624C472.216 280.389 472.515 280.075 472.728 279.68C472.952 279.285 473.064 278.832 473.064 278.32C473.064 277.808 472.952 277.355 472.728 276.96C472.515 276.555 472.216 276.24 471.832 276.016C471.459 275.792 471.032 275.68 470.552 275.68C470.072 275.68 469.64 275.792 469.256 276.016C468.883 276.24 468.584 276.555 468.36 276.96C468.147 277.355 468.04 277.808 468.04 278.32Z" fill="#1C3144"/>
<path d="M231.832 273.432L231 281H229.64L231 269.24L235.48 277.352L239.96 269.24L241.32 281H239.96L239.128 273.432L235.48 279.96L231.832 273.432ZM246.929 278.728C246.929 279.005 246.993 279.245 247.121 279.448C247.26 279.651 247.446 279.805 247.681 279.912C247.926 280.008 248.204 280.056 248.513 280.056C248.908 280.056 249.26 279.976 249.569 279.816C249.889 279.656 250.14 279.432 250.321 279.144C250.513 278.845 250.609 278.504 250.609 278.12L250.865 279.08C250.865 279.549 250.721 279.939 250.433 280.248C250.156 280.557 249.809 280.787 249.393 280.936C248.988 281.085 248.582 281.16 248.177 281.16C247.729 281.16 247.308 281.069 246.913 280.888C246.529 280.696 246.22 280.424 245.985 280.072C245.75 279.72 245.633 279.293 245.633 278.792C245.633 278.077 245.884 277.507 246.385 277.08C246.897 276.643 247.606 276.424 248.513 276.424C249.046 276.424 249.489 276.488 249.841 276.616C250.204 276.733 250.492 276.872 250.705 277.032C250.918 277.181 251.062 277.304 251.137 277.4V278.152C250.764 277.896 250.38 277.715 249.985 277.608C249.59 277.491 249.169 277.432 248.721 277.432C248.305 277.432 247.964 277.485 247.697 277.592C247.441 277.699 247.249 277.848 247.121 278.04C246.993 278.232 246.929 278.461 246.929 278.728ZM246.737 275.336L246.113 274.392C246.39 274.189 246.769 273.987 247.249 273.784C247.74 273.581 248.326 273.48 249.009 273.48C249.585 273.48 250.086 273.571 250.513 273.752C250.95 273.923 251.286 274.173 251.521 274.504C251.766 274.835 251.889 275.24 251.889 275.72V281H250.609V275.896C250.609 275.64 250.566 275.432 250.481 275.272C250.396 275.101 250.273 274.968 250.113 274.872C249.964 274.776 249.788 274.707 249.585 274.664C249.382 274.621 249.169 274.6 248.945 274.6C248.582 274.6 248.252 274.643 247.953 274.728C247.665 274.813 247.42 274.915 247.217 275.032C247.014 275.149 246.854 275.251 246.737 275.336ZM258.536 273.64V281H257.256V273.64H258.536ZM260.76 275.048C260.59 274.92 260.435 274.829 260.296 274.776C260.158 274.712 259.982 274.68 259.768 274.68C259.448 274.68 259.198 274.76 259.016 274.92C258.835 275.08 258.707 275.299 258.632 275.576C258.568 275.853 258.536 276.168 258.536 276.52H257.96C257.96 275.933 258.062 275.416 258.264 274.968C258.478 274.509 258.75 274.147 259.08 273.88C259.411 273.613 259.747 273.48 260.088 273.48C260.355 273.48 260.6 273.517 260.824 273.592C261.059 273.656 261.272 273.789 261.464 273.992L260.76 275.048ZM264.821 277.8V276.6H268.021V277.8H264.821ZM273.652 277.64L274.132 276.36H279.092L279.572 277.64H273.652ZM276.58 272.328L274.692 276.776L274.564 277.064L272.9 281H271.38L276.58 269.24L281.78 281H280.26L278.628 277.16L278.5 276.84L276.58 272.328ZM287.463 268.52V281H286.183V268.52H287.463ZM293.623 277.32C293.623 278.109 293.457 278.792 293.127 279.368C292.796 279.944 292.353 280.387 291.799 280.696C291.255 281.005 290.647 281.16 289.975 281.16C289.367 281.16 288.828 281.005 288.359 280.696C287.9 280.387 287.537 279.944 287.271 279.368C287.015 278.792 286.887 278.109 286.887 277.32C286.887 276.52 287.015 275.837 287.271 275.272C287.537 274.696 287.9 274.253 288.359 273.944C288.828 273.635 289.367 273.48 289.975 273.48C290.647 273.48 291.255 273.635 291.799 273.944C292.353 274.253 292.796 274.696 293.127 275.272C293.457 275.837 293.623 276.52 293.623 277.32ZM292.327 277.32C292.327 276.755 292.209 276.275 291.975 275.88C291.751 275.485 291.447 275.187 291.063 274.984C290.689 274.781 290.273 274.68 289.815 274.68C289.441 274.68 289.073 274.781 288.711 274.984C288.348 275.187 288.049 275.485 287.815 275.88C287.58 276.275 287.463 276.755 287.463 277.32C287.463 277.885 287.58 278.365 287.815 278.76C288.049 279.155 288.348 279.453 288.711 279.656C289.073 279.859 289.441 279.96 289.815 279.96C290.273 279.96 290.689 279.859 291.063 279.656C291.447 279.453 291.751 279.155 291.975 278.76C292.209 278.365 292.327 277.885 292.327 277.32ZM299.867 273.64V281H298.587V273.64H299.867ZM302.091 275.048C301.921 274.92 301.766 274.829 301.627 274.776C301.489 274.712 301.313 274.68 301.099 274.68C300.779 274.68 300.529 274.76 300.347 274.92C300.166 275.08 300.038 275.299 299.963 275.576C299.899 275.853 299.867 276.168 299.867 276.52H299.291C299.291 275.933 299.393 275.416 299.595 274.968C299.809 274.509 300.081 274.147 300.411 273.88C300.742 273.613 301.078 273.48 301.419 273.48C301.686 273.48 301.931 273.517 302.155 273.592C302.39 273.656 302.603 273.789 302.795 273.992L302.091 275.048Z" fill="#1C3144"/>
<line x1="31" y1="36.5" x2="774" y2="36.5" stroke="#C4CAD0"/>
<line x1="31" y1="74.5" x2="774" y2="74.5" stroke="#C4CAD0"/>
<line x1="31" y1="264.5" x2="774" y2="264.5" stroke="#C4CAD0"/>
<line x1="31" y1="226.5" x2="774" y2="226.5" stroke="#C4CAD0"/>
<line x1="31" y1="264.5" x2="774" y2="264.5" stroke="#C4CAD0"/>
<line x1="31" y1="188.5" x2="774" y2="188.5" stroke="#C4CAD0"/>
<line x1="31" y1="226.5" x2="774" y2="226.5" stroke="#C4CAD0"/>
<line x1="31" y1="150.5" x2="774" y2="150.5" stroke="#C4CAD0"/>
<line x1="31" y1="188.5" x2="774" y2="188.5" stroke="#C4CAD0"/>
<line x1="31" y1="112.5" x2="774" y2="112.5" stroke="#C4CAD0"/>
<line x1="31" y1="150.5" x2="774" y2="150.5" stroke="#C4CAD0"/>
<line x1="31" y1="74.5" x2="774" y2="74.5" stroke="#C4CAD0"/>
<line x1="31" y1="112.5" x2="774" y2="112.5" stroke="#C4CAD0"/>
<path d="M1.28 33.008V31.6L5.12 30.64V42H3.76V32.272L1.28 33.008ZM16.3871 38.32C16.3871 38.96 16.2858 39.52 16.0831 40C15.8805 40.48 15.5978 40.88 15.2351 41.2C14.8725 41.52 14.4565 41.76 13.9871 41.92C13.5178 42.08 13.0111 42.16 12.4671 42.16C11.7845 42.16 11.1871 42.0533 10.6751 41.84C10.1738 41.6267 9.74179 41.344 9.37913 40.992C9.02713 40.6293 8.72846 40.2347 8.48313 39.808L9.63513 39.024C9.80579 39.344 10.0298 39.648 10.3071 39.936C10.5951 40.2133 10.9258 40.4427 11.2991 40.624C11.6725 40.7947 12.0618 40.88 12.4671 40.88C13.0005 40.88 13.4538 40.7733 13.8271 40.56C14.2005 40.3467 14.4831 40.048 14.6751 39.664C14.8778 39.28 14.9791 38.832 14.9791 38.32C14.9791 37.808 14.8671 37.36 14.6431 36.976C14.4298 36.592 14.1311 36.2933 13.7471 36.08C13.3738 35.8667 12.9471 35.76 12.4671 35.76C12.1151 35.76 11.7898 35.792 11.4911 35.856C11.2031 35.9093 10.9098 36.0107 10.6111 36.16C10.3231 36.2987 9.98713 36.5013 9.60313 36.768L11.0751 30.8H16.3551V32H12.1311L11.3791 34.96C11.6458 34.8213 11.9178 34.72 12.1951 34.656C12.4831 34.5813 12.7658 34.544 13.0431 34.544C13.6831 34.544 14.2538 34.704 14.7551 35.024C15.2671 35.344 15.6671 35.7867 15.9551 36.352C16.2431 36.9173 16.3871 37.5733 16.3871 38.32ZM19.8344 36.4C19.8344 37.0507 19.8984 37.6533 20.0264 38.208C20.1544 38.752 20.341 39.2267 20.5864 39.632C20.8317 40.0267 21.125 40.336 21.4664 40.56C21.8184 40.7733 22.2077 40.88 22.6344 40.88C23.0717 40.88 23.461 40.7733 23.8024 40.56C24.1437 40.336 24.437 40.0267 24.6824 39.632C24.9277 39.2267 25.1144 38.752 25.2424 38.208C25.3704 37.6533 25.4344 37.0507 25.4344 36.4C25.4344 35.7493 25.3704 35.152 25.2424 34.608C25.1144 34.0533 24.9277 33.5787 24.6824 33.184C24.437 32.7787 24.1437 32.4693 23.8024 32.256C23.461 32.032 23.0717 31.92 22.6344 31.92C22.2077 31.92 21.8184 32.032 21.4664 32.256C21.125 32.4693 20.8317 32.7787 20.5864 33.184C20.341 33.5787 20.1544 34.0533 20.0264 34.608C19.8984 35.152 19.8344 35.7493 19.8344 36.4ZM18.4744 36.4C18.4744 35.28 18.6504 34.288 19.0024 33.424C19.3544 32.56 19.8397 31.8827 20.4584 31.392C21.0877 30.8907 21.813 30.64 22.6344 30.64C23.4557 30.64 24.1757 30.8907 24.7944 31.392C25.4237 31.8827 25.9144 32.56 26.2664 33.424C26.6184 34.288 26.7944 35.28 26.7944 36.4C26.7944 37.52 26.6184 38.512 26.2664 39.376C25.9144 40.24 25.4237 40.9227 24.7944 41.424C24.1757 41.9147 23.4557 42.16 22.6344 42.16C21.813 42.16 21.0877 41.9147 20.4584 41.424C19.8397 40.9227 19.3544 40.24 19.0024 39.376C18.6504 38.512 18.4744 37.52 18.4744 36.4Z" fill="#1C3144" fill-opacity="0.8"/>
<path d="M1.28 71.008V69.6L5.12 68.64V80H3.76V70.272L1.28 71.008ZM8.32313 80L13.6191 74.352C13.8645 74.0853 14.0725 73.824 14.2431 73.568C14.4245 73.3013 14.5578 73.0347 14.6431 72.768C14.7391 72.4907 14.7871 72.2027 14.7871 71.904C14.7871 71.6587 14.7391 71.4187 14.6431 71.184C14.5471 70.9493 14.4031 70.736 14.2111 70.544C14.0298 70.352 13.8058 70.1973 13.5391 70.08C13.2725 69.9627 12.9685 69.904 12.6271 69.904C12.1471 69.904 11.7311 70.016 11.3791 70.24C11.0378 70.4533 10.7765 70.768 10.5951 71.184C10.4138 71.5893 10.3231 72.0747 10.3231 72.64H8.96313C8.96313 71.84 9.10713 71.1413 9.39513 70.544C9.68313 69.936 10.0991 69.4667 10.6431 69.136C11.1978 68.7947 11.8591 68.624 12.6271 68.624C13.2458 68.624 13.7791 68.7307 14.2271 68.944C14.6751 69.1467 15.0431 69.4133 15.3311 69.744C15.6191 70.064 15.8325 70.4107 15.9711 70.784C16.1098 71.1573 16.1791 71.5147 16.1791 71.856C16.1791 72.432 16.0405 73.0027 15.7631 73.568C15.4858 74.1333 15.1285 74.64 14.6911 75.088L11.1231 78.72H16.2271V80H8.32313ZM26.2965 76.32C26.2965 76.96 26.1952 77.52 25.9925 78C25.7898 78.48 25.5072 78.88 25.1445 79.2C24.7818 79.52 24.3658 79.76 23.8965 79.92C23.4272 80.08 22.9205 80.16 22.3765 80.16C21.6938 80.16 21.0965 80.0533 20.5845 79.84C20.0832 79.6267 19.6512 79.344 19.2885 78.992C18.9365 78.6293 18.6378 78.2347 18.3925 77.808L19.5445 77.024C19.7152 77.344 19.9392 77.648 20.2165 77.936C20.5045 78.2133 20.8352 78.4427 21.2085 78.624C21.5818 78.7947 21.9712 78.88 22.3765 78.88C22.9098 78.88 23.3632 78.7733 23.7365 78.56C24.1098 78.3467 24.3925 78.048 24.5845 77.664C24.7872 77.28 24.8885 76.832 24.8885 76.32C24.8885 75.808 24.7765 75.36 24.5525 74.976C24.3392 74.592 24.0405 74.2933 23.6565 74.08C23.2832 73.8667 22.8565 73.76 22.3765 73.76C22.0245 73.76 21.6992 73.792 21.4005 73.856C21.1125 73.9093 20.8192 74.0107 20.5205 74.16C20.2325 74.2987 19.8965 74.5013 19.5125 74.768L20.9845 68.8H26.2645V70H22.0405L21.2885 72.96C21.5552 72.8213 21.8272 72.72 22.1045 72.656C22.3925 72.5813 22.6752 72.544 22.9525 72.544C23.5925 72.544 24.1632 72.704 24.6645 73.024C25.1765 73.344 25.5765 73.7867 25.8645 74.352C26.1525 74.9173 26.2965 75.5733 26.2965 76.32Z" fill="#1C3144" fill-opacity="0.8"/>
<path d="M1.28 109.008V107.6L5.12 106.64V118H3.76V108.272L1.28 109.008ZM10.0031 112.4C10.0031 113.051 10.0671 113.653 10.1951 114.208C10.3231 114.752 10.5098 115.227 10.7551 115.632C11.0005 116.027 11.2938 116.336 11.6351 116.56C11.9871 116.773 12.3765 116.88 12.8031 116.88C13.2405 116.88 13.6298 116.773 13.9711 116.56C14.3125 116.336 14.6058 116.027 14.8511 115.632C15.0965 115.227 15.2831 114.752 15.4111 114.208C15.5391 113.653 15.6031 113.051 15.6031 112.4C15.6031 111.749 15.5391 111.152 15.4111 110.608C15.2831 110.053 15.0965 109.579 14.8511 109.184C14.6058 108.779 14.3125 108.469 13.9711 108.256C13.6298 108.032 13.2405 107.92 12.8031 107.92C12.3765 107.92 11.9871 108.032 11.6351 108.256C11.2938 108.469 11.0005 108.779 10.7551 109.184C10.5098 109.579 10.3231 110.053 10.1951 110.608C10.0671 111.152 10.0031 111.749 10.0031 112.4ZM8.64313 112.4C8.64313 111.28 8.81913 110.288 9.17113 109.424C9.52313 108.56 10.0085 107.883 10.6271 107.392C11.2565 106.891 11.9818 106.64 12.8031 106.64C13.6245 106.64 14.3445 106.891 14.9631 107.392C15.5925 107.883 16.0831 108.56 16.4351 109.424C16.7871 110.288 16.9631 111.28 16.9631 112.4C16.9631 113.52 16.7871 114.512 16.4351 115.376C16.0831 116.24 15.5925 116.923 14.9631 117.424C14.3445 117.915 13.6245 118.16 12.8031 118.16C11.9818 118.16 11.2565 117.915 10.6271 117.424C10.0085 116.923 9.52313 116.24 9.17113 115.376C8.81913 114.512 8.64313 113.52 8.64313 112.4ZM20.3969 112.4C20.3969 113.051 20.4609 113.653 20.5889 114.208C20.7169 114.752 20.9035 115.227 21.1489 115.632C21.3942 116.027 21.6875 116.336 22.0289 116.56C22.3809 116.773 22.7702 116.88 23.1969 116.88C23.6342 116.88 24.0235 116.773 24.3649 116.56C24.7062 116.336 24.9995 116.027 25.2449 115.632C25.4902 115.227 25.6769 114.752 25.8049 114.208C25.9329 113.653 25.9969 113.051 25.9969 112.4C25.9969 111.749 25.9329 111.152 25.8049 110.608C25.6769 110.053 25.4902 109.579 25.2449 109.184C24.9995 108.779 24.7062 108.469 24.3649 108.256C24.0235 108.032 23.6342 107.92 23.1969 107.92C22.7702 107.92 22.3809 108.032 22.0289 108.256C21.6875 108.469 21.3942 108.779 21.1489 109.184C20.9035 109.579 20.7169 110.053 20.5889 110.608C20.4609 111.152 20.3969 111.749 20.3969 112.4ZM19.0369 112.4C19.0369 111.28 19.2129 110.288 19.5649 109.424C19.9169 108.56 20.4022 107.883 21.0209 107.392C21.6502 106.891 22.3755 106.64 23.1969 106.64C24.0182 106.64 24.7382 106.891 25.3569 107.392C25.9862 107.883 26.4769 108.56 26.8289 109.424C27.1809 110.288 27.3569 111.28 27.3569 112.4C27.3569 113.52 27.1809 114.512 26.8289 115.376C26.4769 116.24 25.9862 116.923 25.3569 117.424C24.7382 117.915 24.0182 118.16 23.1969 118.16C22.3755 118.16 21.6502 117.915 21.0209 117.424C20.4022 116.923 19.9169 116.24 19.5649 115.376C19.2129 114.512 19.0369 113.52 19.0369 112.4Z" fill="#1C3144" fill-opacity="0.8"/>
<path d="M1.48 143.08V141.8H9.32L3.96 153H2.536L7.288 143.08H1.48ZM18.5903 149.32C18.5903 149.96 18.4889 150.52 18.2863 151C18.0836 151.48 17.8009 151.88 17.4383 152.2C17.0756 152.52 16.6596 152.76 16.1903 152.92C15.7209 153.08 15.2143 153.16 14.6703 153.16C13.9876 153.16 13.3903 153.053 12.8783 152.84C12.3769 152.627 11.9449 152.344 11.5823 151.992C11.2303 151.629 10.9316 151.235 10.6863 150.808L11.8383 150.024C12.0089 150.344 12.2329 150.648 12.5103 150.936C12.7983 151.213 13.1289 151.443 13.5023 151.624C13.8756 151.795 14.2649 151.88 14.6703 151.88C15.2036 151.88 15.6569 151.773 16.0303 151.56C16.4036 151.347 16.6863 151.048 16.8783 150.664C17.0809 150.28 17.1823 149.832 17.1823 149.32C17.1823 148.808 17.0703 148.36 16.8463 147.976C16.6329 147.592 16.3343 147.293 15.9503 147.08C15.5769 146.867 15.1503 146.76 14.6703 146.76C14.3183 146.76 13.9929 146.792 13.6943 146.856C13.4063 146.909 13.1129 147.011 12.8143 147.16C12.5263 147.299 12.1903 147.501 11.8063 147.768L13.2783 141.8H18.5583V143H14.3343L13.5823 145.96C13.8489 145.821 14.1209 145.72 14.3983 145.656C14.6863 145.581 14.9689 145.544 15.2463 145.544C15.8863 145.544 16.4569 145.704 16.9583 146.024C17.4703 146.344 17.8703 146.787 18.1583 147.352C18.4463 147.917 18.5903 148.573 18.5903 149.32Z" fill="#1C3144" fill-opacity="0.8"/>
<path d="M9.384 187.32C9.384 187.96 9.28267 188.52 9.08 189C8.87733 189.48 8.59467 189.88 8.232 190.2C7.86933 190.52 7.45333 190.76 6.984 190.92C6.51467 191.08 6.008 191.16 5.464 191.16C4.78133 191.16 4.184 191.053 3.672 190.84C3.17067 190.627 2.73867 190.344 2.376 189.992C2.024 189.629 1.72533 189.235 1.48 188.808L2.632 188.024C2.80267 188.344 3.02667 188.648 3.304 188.936C3.592 189.213 3.92267 189.443 4.296 189.624C4.66933 189.795 5.05867 189.88 5.464 189.88C5.99733 189.88 6.45067 189.773 6.824 189.56C7.19733 189.347 7.48 189.048 7.672 188.664C7.87467 188.28 7.976 187.832 7.976 187.32C7.976 186.808 7.864 186.36 7.64 185.976C7.42667 185.592 7.128 185.293 6.744 185.08C6.37067 184.867 5.944 184.76 5.464 184.76C5.112 184.76 4.78667 184.792 4.488 184.856C4.2 184.909 3.90667 185.011 3.608 185.16C3.32 185.299 2.984 185.501 2.6 185.768L4.072 179.8H9.352V181H5.128L4.376 183.96C4.64267 183.821 4.91467 183.72 5.192 183.656C5.48 183.581 5.76267 183.544 6.04 183.544C6.68 183.544 7.25067 183.704 7.752 184.024C8.264 184.344 8.664 184.787 8.952 185.352C9.24 185.917 9.384 186.573 9.384 187.32ZM12.8313 185.4C12.8313 186.051 12.8953 186.653 13.0233 187.208C13.1513 187.752 13.3379 188.227 13.5833 188.632C13.8286 189.027 14.1219 189.336 14.4633 189.56C14.8153 189.773 15.2046 189.88 15.6313 189.88C16.0686 189.88 16.4579 189.773 16.7993 189.56C17.1406 189.336 17.4339 189.027 17.6793 188.632C17.9246 188.227 18.1113 187.752 18.2393 187.208C18.3673 186.653 18.4313 186.051 18.4313 185.4C18.4313 184.749 18.3673 184.152 18.2393 183.608C18.1113 183.053 17.9246 182.579 17.6793 182.184C17.4339 181.779 17.1406 181.469 16.7993 181.256C16.4579 181.032 16.0686 180.92 15.6313 180.92C15.2046 180.92 14.8153 181.032 14.4633 181.256C14.1219 181.469 13.8286 181.779 13.5833 182.184C13.3379 182.579 13.1513 183.053 13.0233 183.608C12.8953 184.152 12.8313 184.749 12.8313 185.4ZM11.4713 185.4C11.4713 184.28 11.6473 183.288 11.9993 182.424C12.3513 181.56 12.8366 180.883 13.4553 180.392C14.0846 179.891 14.8099 179.64 15.6313 179.64C16.4526 179.64 17.1726 179.891 17.7913 180.392C18.4206 180.883 18.9113 181.56 19.2633 182.424C19.6153 183.288 19.7913 184.28 19.7913 185.4C19.7913 186.52 19.6153 187.512 19.2633 188.376C18.9113 189.24 18.4206 189.923 17.7913 190.424C17.1726 190.915 16.4526 191.16 15.6313 191.16C14.8099 191.16 14.0846 190.915 13.4553 190.424C12.8366 189.923 12.3513 189.24 11.9993 188.376C11.6473 187.512 11.4713 186.52 11.4713 185.4Z" fill="#1C3144" fill-opacity="0.8"/>
<path d="M1.32 232L6.616 226.352C6.86133 226.085 7.06933 225.824 7.24 225.568C7.42133 225.301 7.55467 225.035 7.64 224.768C7.736 224.491 7.784 224.203 7.784 223.904C7.784 223.659 7.736 223.419 7.64 223.184C7.544 222.949 7.4 222.736 7.208 222.544C7.02667 222.352 6.80267 222.197 6.536 222.08C6.26933 221.963 5.96533 221.904 5.624 221.904C5.144 221.904 4.728 222.016 4.376 222.24C4.03467 222.453 3.77333 222.768 3.592 223.184C3.41067 223.589 3.32 224.075 3.32 224.64H1.96C1.96 223.84 2.104 223.141 2.392 222.544C2.68 221.936 3.096 221.467 3.64 221.136C4.19467 220.795 4.856 220.624 5.624 220.624C6.24267 220.624 6.776 220.731 7.224 220.944C7.672 221.147 8.04 221.413 8.328 221.744C8.616 222.064 8.82933 222.411 8.968 222.784C9.10667 223.157 9.176 223.515 9.176 223.856C9.176 224.432 9.03733 225.003 8.76 225.568C8.48267 226.133 8.12533 226.64 7.688 227.088L4.12 230.72H9.224V232H1.32ZM19.2934 228.32C19.2934 228.96 19.192 229.52 18.9894 230C18.7867 230.48 18.504 230.88 18.1414 231.2C17.7787 231.52 17.3627 231.76 16.8934 231.92C16.424 232.08 15.9174 232.16 15.3734 232.16C14.6907 232.16 14.0934 232.053 13.5814 231.84C13.08 231.627 12.648 231.344 12.2854 230.992C11.9334 230.629 11.6347 230.235 11.3894 229.808L12.5414 229.024C12.712 229.344 12.936 229.648 13.2134 229.936C13.5014 230.213 13.832 230.443 14.2054 230.624C14.5787 230.795 14.968 230.88 15.3734 230.88C15.9067 230.88 16.36 230.773 16.7334 230.56C17.1067 230.347 17.3894 230.048 17.5814 229.664C17.784 229.28 17.8854 228.832 17.8854 228.32C17.8854 227.808 17.7734 227.36 17.5494 226.976C17.336 226.592 17.0374 226.293 16.6534 226.08C16.28 225.867 15.8534 225.76 15.3734 225.76C15.0214 225.76 14.696 225.792 14.3974 225.856C14.1094 225.909 13.816 226.011 13.5174 226.16C13.2294 226.299 12.8934 226.501 12.5094 226.768L13.9814 220.8H19.2614V222H15.0374L14.2854 224.96C14.552 224.821 14.824 224.72 15.1014 224.656C15.3894 224.581 15.672 224.544 15.9494 224.544C16.5894 224.544 17.16 224.704 17.6614 225.024C18.1734 225.344 18.5734 225.787 18.8614 226.352C19.1494 226.917 19.2934 227.573 19.2934 228.32Z" fill="#1C3144" fill-opacity="0.8"/>
<path d="M8 262.4C8 263.051 8.064 263.653 8.192 264.208C8.32 264.752 8.50667 265.227 8.752 265.632C8.99733 266.027 9.29067 266.336 9.632 266.56C9.984 266.773 10.3733 266.88 10.8 266.88C11.2373 266.88 11.6267 266.773 11.968 266.56C12.3093 266.336 12.6027 266.027 12.848 265.632C13.0933 265.227 13.28 264.752 13.408 264.208C13.536 263.653 13.6 263.051 13.6 262.4C13.6 261.749 13.536 261.152 13.408 260.608C13.28 260.053 13.0933 259.579 12.848 259.184C12.6027 258.779 12.3093 258.469 11.968 258.256C11.6267 258.032 11.2373 257.92 10.8 257.92C10.3733 257.92 9.984 258.032 9.632 258.256C9.29067 258.469 8.99733 258.779 8.752 259.184C8.50667 259.579 8.32 260.053 8.192 260.608C8.064 261.152 8 261.749 8 262.4ZM6.64 262.4C6.64 261.28 6.816 260.288 7.168 259.424C7.52 258.56 8.00533 257.883 8.624 257.392C9.25333 256.891 9.97867 256.64 10.8 256.64C11.6213 256.64 12.3413 256.891 12.96 257.392C13.5893 257.883 14.08 258.56 14.432 259.424C14.784 260.288 14.96 261.28 14.96 262.4C14.96 263.52 14.784 264.512 14.432 265.376C14.08 266.24 13.5893 266.923 12.96 267.424C12.3413 267.915 11.6213 268.16 10.8 268.16C9.97867 268.16 9.25333 267.915 8.624 267.424C8.00533 266.923 7.52 266.24 7.168 265.376C6.816 264.512 6.64 263.52 6.64 262.4Z" fill="#1C3144" fill-opacity="0.8"/>
<rect x="147" y="160" width="36" height="105" rx="1" fill="#C4CAD0"/>
<rect x="147" y="189" width="36" height="76" rx="1" fill="#1C3144"/>
<rect x="623" y="115" width="36" height="150" rx="1" fill="#C4CAD0"/>
<rect x="623" y="174" width="36" height="91" rx="1" fill="#1C3144"/>
<rect x="523" y="43" width="36" height="222" rx="1" fill="#C4CAD0"/>
<rect x="523" y="143" width="36" height="122" rx="1" fill="#1C3144"/>
<rect x="429" y="63" width="36" height="202" rx="1" fill="#C4CAD0"/>
<rect x="429" y="85" width="36" height="180" rx="1" fill="#1C3144"/>
<rect x="335" y="136" width="36" height="129" rx="1" fill="#C4CAD0"/>
<rect x="335" y="163" width="36" height="102" rx="1" fill="#1C3144"/>
<rect x="241" y="85" width="36" height="180" rx="1" fill="#C4CAD0"/>
<rect x="241" y="125" width="36" height="140" rx="1" fill="#1C3144"/>
<path d="M616.76 270.8H618.12V282.56L609.64 273.664V282H608.28V270.24L616.76 279.136V270.8ZM623.166 278.32C623.166 277.573 623.332 276.912 623.662 276.336C624.004 275.76 624.462 275.307 625.038 274.976C625.614 274.645 626.26 274.48 626.974 274.48C627.7 274.48 628.345 274.645 628.91 274.976C629.486 275.307 629.94 275.76 630.27 276.336C630.612 276.912 630.782 277.573 630.782 278.32C630.782 279.056 630.612 279.717 630.27 280.304C629.94 280.88 629.486 281.333 628.91 281.664C628.345 281.995 627.7 282.16 626.974 282.16C626.26 282.16 625.614 281.995 625.038 281.664C624.462 281.333 624.004 280.88 623.662 280.304C623.332 279.717 623.166 279.056 623.166 278.32ZM624.462 278.32C624.462 278.832 624.569 279.285 624.782 279.68C625.006 280.075 625.305 280.389 625.678 280.624C626.062 280.848 626.494 280.96 626.974 280.96C627.454 280.96 627.881 280.848 628.254 280.624C628.638 280.389 628.937 280.075 629.15 279.68C629.374 279.285 629.486 278.832 629.486 278.32C629.486 277.808 629.374 277.355 629.15 276.96C628.937 276.555 628.638 276.24 628.254 276.016C627.881 275.792 627.454 275.68 626.974 275.68C626.494 275.68 626.062 275.792 625.678 276.016C625.305 276.24 625.006 276.555 624.782 276.96C624.569 277.355 624.462 277.808 624.462 278.32ZM634.306 274.64H635.746L637.826 279.84L639.906 274.64H641.346L637.826 282.56L634.306 274.64ZM644.633 278.8V277.6H647.833V278.8H644.633ZM652.392 270.8H653.752V282H652.392V270.8ZM655.752 282H653.144V280.64H655.752C656.382 280.64 656.958 280.544 657.48 280.352C658.003 280.149 658.451 279.867 658.824 279.504C659.198 279.131 659.486 278.683 659.688 278.16C659.891 277.637 659.992 277.051 659.992 276.4C659.992 275.749 659.891 275.163 659.688 274.64C659.486 274.117 659.198 273.675 658.824 273.312C658.451 272.939 658.003 272.656 657.48 272.464C656.958 272.261 656.382 272.16 655.752 272.16H653.144V270.8H655.752C656.84 270.8 657.806 271.035 658.648 271.504C659.491 271.973 660.152 272.629 660.632 273.472C661.112 274.304 661.352 275.28 661.352 276.4C661.352 277.52 661.112 278.501 660.632 279.344C660.152 280.176 659.491 280.827 658.648 281.296C657.806 281.765 656.84 282 655.752 282ZM669.236 282.16C668.553 282.16 667.945 282 667.412 281.68C666.889 281.349 666.478 280.896 666.18 280.32C665.892 279.744 665.748 279.077 665.748 278.32C665.748 277.552 665.897 276.88 666.196 276.304C666.505 275.728 666.932 275.28 667.476 274.96C668.03 274.64 668.67 274.48 669.396 274.48C670.121 274.48 670.74 274.635 671.252 274.944C671.774 275.243 672.174 275.675 672.452 276.24C672.729 276.805 672.868 277.477 672.868 278.256C672.868 278.331 672.862 278.411 672.852 278.496C672.852 278.571 672.852 278.619 672.852 278.64H666.564V277.552H671.844L671.332 278.288C671.364 278.235 671.396 278.155 671.428 278.048C671.46 277.931 671.476 277.835 671.476 277.76C671.476 277.323 671.385 276.944 671.204 276.624C671.033 276.304 670.793 276.053 670.484 275.872C670.174 275.691 669.812 275.6 669.396 275.6C668.905 275.6 668.484 275.707 668.132 275.92C667.79 276.123 667.524 276.421 667.332 276.816C667.15 277.2 667.054 277.675 667.044 278.24C667.044 278.816 667.134 279.307 667.316 279.712C667.497 280.117 667.764 280.427 668.116 280.64C668.468 280.853 668.894 280.96 669.396 280.96C669.897 280.96 670.34 280.853 670.724 280.64C671.108 280.416 671.433 280.08 671.7 279.632L672.74 280.288C672.356 280.907 671.87 281.376 671.284 281.696C670.708 282.005 670.025 282.16 669.236 282.16ZM678.398 278.32C678.398 278.832 678.505 279.285 678.718 279.68C678.942 280.075 679.241 280.389 679.614 280.624C679.998 280.848 680.43 280.96 680.91 280.96C681.305 280.96 681.673 280.901 682.014 280.784C682.366 280.656 682.67 280.491 682.926 280.288C683.182 280.075 683.363 279.851 683.47 279.616V281.216C683.214 281.515 682.846 281.749 682.366 281.92C681.897 282.08 681.411 282.16 680.91 282.16C680.195 282.16 679.55 281.995 678.974 281.664C678.398 281.333 677.939 280.88 677.598 280.304C677.267 279.717 677.102 279.056 677.102 278.32C677.102 277.573 677.267 276.912 677.598 276.336C677.939 275.76 678.398 275.307 678.974 274.976C679.55 274.645 680.195 274.48 680.91 274.48C681.411 274.48 681.897 274.565 682.366 274.736C682.846 274.896 683.214 275.125 683.47 275.424V277.024C683.363 276.779 683.182 276.555 682.926 276.352C682.67 276.149 682.366 275.989 682.014 275.872C681.673 275.744 681.305 275.68 680.91 275.68C680.43 275.68 679.998 275.792 679.614 276.016C679.241 276.24 678.942 276.555 678.718 276.96C678.505 277.355 678.398 277.808 678.398 278.32Z" fill="#1C3144"/>
</svg>
